<svg id="Group_12378" data-name="Group 12378" xmlns="http://www.w3.org/2000/svg" width="56.105" height="56.096" viewBox="0 0 56.105 56.096">
  <g id="Group_12661" data-name="Group 12661">
    <path id="Path_16476" data-name="Path 16476" d="M1961.156,1831.641a4.161,4.161,0,0,0,.965.259,5.789,5.789,0,0,1,4.063,5.4q.04,9.037,0,18.072a5.713,5.713,0,0,1-4.26,5.4c-.345.094-.453.217-.448.579.02,1.771,0,3.541.014,5.312a1.2,1.2,0,0,1-.632,1.229,1.185,1.185,0,0,1-1.39-.319c-2.452-2.1-4.914-4.193-7.363-6.3a1.057,1.057,0,0,0-.781-.284c-.6.022-1.206.029-1.806,0-.345-.018-.422.085-.418.421.015,2.374.008,4.747.008,7.118,0,2.064,0,4.126,0,6.19a5.81,5.81,0,0,1-6.011,6q-9.037.01-18.072-.005a1.233,1.233,0,0,0-.875.328c-2.422,2.084-4.855,4.15-7.282,6.227a1.158,1.158,0,0,1-2.056-.945c.013-1.771,0-3.543.007-5.314,0-.226.007-.4-.291-.477a5.721,5.721,0,0,1-4.309-4.472c-.019-.072-.032-.139-.115-.161v-19.721c.117-.028.1-.132.122-.214a5.829,5.829,0,0,1,6.08-4.608c3.447,0,6.894-.01,10.342.012.457,0,.562-.105.56-.56q-.03-6.649-.007-13.3a5.728,5.728,0,0,1,2.878-5.082,11.525,11.525,0,0,1,2.047-.794h9.97c.017.03.025.072.05.087a1.1,1.1,0,0,1,.684,1.268,1.123,1.123,0,0,1-1.2.834q-4.215.005-8.431,0a4.2,4.2,0,0,0-1.243.157,3.584,3.584,0,0,0-2.564,3.384q-.023,8.951,0,17.9a3.584,3.584,0,0,0,3.7,3.534q9.308.01,18.617-.009a2.162,2.162,0,0,1,1.531.565c1.887,1.639,3.8,3.251,5.7,4.872.09.079.184.154.353.294v-4.23c0-1.117.269-1.408,1.39-1.5a3.584,3.584,0,0,0,3.31-3.474q.038-9.007,0-18.015a3.557,3.557,0,0,0-3.583-3.477c-2.884-.018-5.767,0-8.652-.007a1.122,1.122,0,0,1-1.2-.834,1.092,1.092,0,0,1,.684-1.268c.025-.015.035-.057.05-.087ZM1917,1884.268c2.1-1.791,4.115-3.5,6.111-5.229a1.982,1.982,0,0,1,1.385-.515q9.313.022,18.624.008a3.613,3.613,0,0,0,3.787-3.785c0-4.419-.005-8.838.013-13.255,0-.421-.112-.5-.51-.5-4.108.015-8.218.01-12.325.01a9.007,9.007,0,0,1-2.681-.226l.229.621q1.93,5.105,3.857,10.213a1.115,1.115,0,0,1-.587,1.586c-.62.239-1.183-.072-1.47-.825-.229-.6-.462-1.189-.666-1.791a.478.478,0,0,0-.542-.383q-2.629.027-5.259,0a.483.483,0,0,0-.535.4c-.2.584-.433,1.159-.654,1.736a2.858,2.858,0,0,1-.122.3,1.066,1.066,0,0,1-1.375.559,1.048,1.048,0,0,1-.632-1.382c.557-1.519,1.124-3.037,1.718-4.543,1.065-2.708,1.989-5.471,3.171-8.13.1-.233-.065-.3-.149-.412a6,6,0,0,1-1.107-2.527,12.075,12.075,0,0,1-.087-2.24c0-.278-.024-.415-.37-.415-3.669.015-7.339-.007-11.009.018a3.562,3.562,0,0,0-3.521,3.542q-.028,8.929,0,17.856a3.6,3.6,0,0,0,3.449,3.568c.906.052,1.256.425,1.258,1.355,0,1.422,0,2.844,0,4.384m12.616-22c-.76,2-1.465,3.852-2.176,5.724h4.335c-.711-1.886-1.408-3.733-2.159-5.724" transform="translate(-1910.099 -1831.641)" fill="#bfbfbf"/>
    <path id="Path_16477" data-name="Path 16477" d="M1932.858,1831.641c-.025.177.154.157.232.231a1.054,1.054,0,0,1,.336,1.266,1.086,1.086,0,0,1-2.069-.156,1.05,1.05,0,0,1,.532-1.2c.07-.043.187-.019.2-.141Z" transform="translate(-1895.825 -1831.641)" fill="#bfbfbf"/>
    <path id="Path_16478" data-name="Path 16478" d="M1931,1838.96c.895,0,1.791-.037,2.684.015.527.027.627-.161.6-.632-.039-.711-.019-1.425-.009-2.137a1.1,1.1,0,1,1,2.188-.017c.012.766.023,1.534-.007,2.3-.015.378.083.487.473.482,1.9-.023,3.8-.01,5.7-.01a1.085,1.085,0,0,1,1.069.624,1.028,1.028,0,0,1-.09,1.085,1.2,1.2,0,0,1-1.1.485c-1.005,0-2.009.012-3.012-.007-.313-.009-.392.09-.4.4a11.651,11.651,0,0,1-2.025,6.255c-.2.3-.2.453.085.694a9.906,9.906,0,0,0,5.024,2.362,1.351,1.351,0,0,1,1.045.51,1.093,1.093,0,0,1-1.085,1.7,11.708,11.708,0,0,1-5.387-2.106,11.357,11.357,0,0,1-1.107-.892c-.2-.187-.318-.2-.529-.008a11.77,11.77,0,0,1-5.9,2.912,5.725,5.725,0,0,1-.649.1,1.062,1.062,0,0,1-1.221-.908,1.032,1.032,0,0,1,.89-1.229,11.653,11.653,0,0,0,2.975-.875,10.528,10.528,0,0,0,2.41-1.589c.228-.2.294-.325.1-.609a11.615,11.615,0,0,1-2.069-6.353c-.008-.3-.112-.361-.383-.356-1.059.01-2.119.028-3.176-.01a1.085,1.085,0,0,1-1-1.641,1.124,1.124,0,0,1,1.064-.54c.948.005,1.9,0,2.847,0m4.374,7.429a9.942,9.942,0,0,0,1.535-4.867c.013-.267-.04-.385-.346-.375-.8.02-1.6.015-2.405,0-.274-.007-.334.09-.323.343a9.828,9.828,0,0,0,1.539,4.9" transform="translate(-1898.78 -1829.368)" fill="#bfbfbf"/>
  </g>
</svg>
