<svg id="Group_12376" data-name="Group 12376" xmlns="http://www.w3.org/2000/svg" width="50.472" height="56.096" viewBox="0 0 50.472 56.096">
  <path id="Path_16479" data-name="Path 16479" d="M2106.577,1886.622c-.347-.145-.7-.265-1.034-.438a3.973,3.973,0,0,1-2.271-3.427c-.015-.2-.015-.4-.015-.6q0-21.713-.015-43.427a4.24,4.24,0,0,1,3.145-4.318,12.851,12.851,0,0,1,2.784-.127c.529-.012,1.172.178,1.556-.061s.083-.936.151-1.428a2.6,2.6,0,0,1,3.024-2.253,2.5,2.5,0,0,1,2.34,2.5c.014.4-.175.918.081,1.157.275.256.8.082,1.213.082q11.283.005,22.563.017c.546,0,.69-.149.641-.665a3.368,3.368,0,0,1,.068-1.25,2.63,2.63,0,0,1,3.035-1.834,2.528,2.528,0,0,1,2.254,2.366c0,.056,0,.11.005.165.01.38-.127.9.068,1.106.258.275.787.078,1.2.095a26.157,26.157,0,0,1,2.9.078,3.98,3.98,0,0,1,3.416,3.78c.049,4.618.027,9.237.025,13.855a.816.816,0,0,1-.832.885.836.836,0,0,1-.8-.925c-.013-1.242-.029-2.483.007-3.724.014-.465-.125-.563-.575-.563q-16.729.02-33.46.01c-4.18,0-8.36.007-12.542-.01-.446,0-.614.064-.614.578q.028,15.334.015,30.669a2.486,2.486,0,0,0,2.76,2.779q15.691,0,31.381,0a1.907,1.907,0,0,0,2.151-2.153c0-1.679,0-3.359,0-5.039a3.5,3.5,0,0,1,3.625-3.675c1.7-.021,3.4,0,5.095-.005a1.905,1.905,0,0,0,2.151-2.156q.005-6.435,0-12.871a2.8,2.8,0,0,1,.034-.6.807.807,0,0,1,1.6.081c.013.144.01.292.01.438q0,13.252,0,26.505a4.137,4.137,0,0,1-2.9,4.224c-.175.054-.409-.036-.531.178Zm21.91-40.593q11.528,0,23.053,0c.3,0,.543.046.54-.422-.025-2.39,0-4.782-.019-7.173a2.409,2.409,0,0,0-2.431-2.5c-2.3-.037-4.6-.007-6.9-.019-.3,0-.367.109-.36.38.015.6,0,1.2.005,1.809,0,.765.159.948.911,1.1a.823.823,0,1,1-.188,1.634,2.455,2.455,0,0,1-2.349-2.243,16,16,0,0,1-.007-2.024c.037-.529-.117-.66-.652-.66q-13.469.028-26.941.014a2.105,2.105,0,0,1-.275,0c-.293-.039-.375.092-.369.373.019.6,0,1.2.007,1.807,0,.735.2.962.923,1.1a.823.823,0,1,1-.178,1.635,2.5,2.5,0,0,1-2.384-2.458c-.025-.638-.029-1.278,0-1.916.02-.41-.071-.575-.528-.553a24.089,24.089,0,0,1-2.571,0,2.615,2.615,0,0,0-2.89,2.852c.071,2.224.033,4.453,0,6.679-.006.487.117.594.6.594q11.5-.026,23-.012m23.57,27.764-.11-.075c-.117.132-.229.271-.353.4-2.58,2.583-5.174,5.152-7.735,7.753a4.738,4.738,0,0,1-3.566,1.479c-10.24-.019-20.48,0-30.72-.017-1.574,0-3.206.29-4.628-.775-.017.125-.027.161-.027.2a2.468,2.468,0,0,0,2.693,2.226q20.862,0,41.727,0c.127,0,.254,0,.381-.005a2.388,2.388,0,0,0,2.328-2.312c.034-2.955.01-5.91.01-8.867m-1.321-1.322c-2.014,0-4.053-.019-6.092.007a1.787,1.787,0,0,0-1.795,1.773c-.027,2.074-.008,4.149-.008,6.1l7.9-7.877m-37.18-38.19c1.057,0,1.057,0,1.042-1.045,0-.019,0-.038,0-.056-.019-.7-.319-.994-1.007-1-.725-.007-1.056.3-1.081,1-.041,1.1-.041,1.1,1.046,1.1m29.837,0c1.1,0,1.1,0,1.066-1.084-.021-.707-.346-1.018-1.061-1.016s-1.013.3-1.026,1.035c-.021,1.065-.021,1.065,1.021,1.065m7.526,38.153c-.012-.012-.024-.034-.038-.034s-.025.021-.039.031l.056.039.021-.035" transform="translate(-2103.241 -1830.525)" fill="#bfbfbf"/>
  <path id="Path_16480" data-name="Path 16480" d="M2132.237,1852.98c-.96-.141-2.092-.309-3.225-.477-.7-.1-1.4-.234-2.11-.3a1.878,1.878,0,0,1-1.617-1.2c-.792-1.654-1.622-3.291-2.438-4.942-.208.063-.219.25-.285.384q-1.152,2.321-2.3,4.648a1.793,1.793,0,0,1-1.135,1.031.82.82,0,0,1-1.048-.451.75.75,0,0,1,.4-1.048.885.885,0,0,0,.408-.477c.782-1.583,1.577-3.159,2.343-4.749a1.657,1.657,0,0,1,3.133.017c.75,1.558,1.539,3.1,2.284,4.655a.883.883,0,0,0,.77.558c1.771.238,3.537.506,5.3.76a1.575,1.575,0,0,1,1.367,1.1,1.532,1.532,0,0,1-.427,1.7q-1.952,1.922-3.922,3.819a.762.762,0,0,0-.253.769c.312,1.759.6,3.52.919,5.278a1.626,1.626,0,0,1-.589,1.708,1.593,1.593,0,0,1-1.845.105c-1.595-.84-3.195-1.667-4.781-2.521a.75.75,0,0,0-.8,0c-1.554.836-3.123,1.646-4.68,2.477a1.656,1.656,0,0,1-2.516-1.832c.324-1.739.6-3.485.909-5.225a.766.766,0,0,0-.258-.767c-1.279-1.223-2.536-2.47-3.81-3.7a1.643,1.643,0,0,1,.945-2.928c.779-.093,1.551-.231,2.328-.331a.817.817,0,1,1,.251,1.6c-.787.139-1.579.243-2.514.382.385.361.687.638.982.923,1.01.979,1.992,1.985,3.03,2.93a2.131,2.131,0,0,1,.669,2.168c-.317,1.683-.585,3.376-.874,5.064-.012.068-.014.139-.02.207.207.066.331-.07.465-.139,1.532-.8,3.067-1.6,4.589-2.416a1.777,1.777,0,0,1,1.815-.005c1.443.774,2.9,1.53,4.348,2.287a1.587,1.587,0,0,0,.734.3c-.265-1.544-.446-3.086-.806-4.584a3.049,3.049,0,0,1,1.047-3.386,44.135,44.135,0,0,0,3.211-3.393" transform="translate(-2097.554 -1820.938)" fill="#bfbfbf"/>
</svg>
